<svg id="visual" viewBox="0 0 900 200" width="900" height="200" xmlns="http://www.w3.org/2000/svg" xmlns:xlink="http://www.w3.org/1999/xlink" version="1.1"><rect x="0" y="0" width="900" height="200" fill="#fff"></rect><path d="M0 73L8.3 73.7C16.7 74.3 33.3 75.7 50 83.7C66.7 91.7 83.3 106.3 100 106.8C116.7 107.3 133.3 93.7 150 91.8C166.7 90 183.3 100 200 106.2C216.7 112.3 233.3 114.7 250 111.5C266.7 108.3 283.3 99.7 300 98.7C316.7 97.7 333.3 104.3 350 108.5C366.7 112.7 383.3 114.3 400 111.7C416.7 109 433.3 102 450 100.3C466.7 98.7 483.3 102.3 500 104.8C516.7 107.3 533.3 108.7 550 108.7C566.7 108.7 583.3 107.3 600 101.7C616.7 96 633.3 86 650 83.2C666.7 80.3 683.3 84.7 700 88.8C716.7 93 733.3 97 750 101.8C766.7 106.7 783.3 112.3 800 110C816.7 107.7 833.3 97.3 850 96.3C866.7 95.3 883.3 103.7 891.7 107.8L900 112L900 201L891.7 201C883.3 201 866.7 201 850 201C833.3 201 816.7 201 800 201C783.3 201 766.7 201 750 201C733.3 201 716.7 201 700 201C683.3 201 666.7 201 650 201C633.3 201 616.7 201 600 201C583.3 201 566.7 201 550 201C533.3 201 516.7 201 500 201C483.3 201 466.7 201 450 201C433.3 201 416.7 201 400 201C383.3 201 366.7 201 350 201C333.3 201 316.7 201 300 201C283.3 201 266.7 201 250 201C233.3 201 216.7 201 200 201C183.3 201 166.7 201 150 201C133.3 201 116.7 201 100 201C83.3 201 66.7 201 50 201C33.3 201 16.7 201 8.3 201L0 201Z" fill="#003213"></path><path d="M0 112L8.3 116.2C16.7 120.3 33.3 128.7 50 128.3C66.7 128 83.3 119 100 112.8C116.7 106.7 133.3 103.3 150 101.3C166.7 99.3 183.3 98.7 200 99.7C216.7 100.7 233.3 103.3 250 102.5C266.7 101.7 283.3 97.3 300 101.7C316.7 106 333.3 119 350 121C366.7 123 383.3 114 400 112.5C416.7 111 433.3 117 450 119C466.7 121 483.3 119 500 117.2C516.7 115.3 533.3 113.7 550 110.7C566.7 107.7 583.3 103.3 600 101.7C616.7 100 633.3 101 650 106.8C666.7 112.7 683.3 123.3 700 123.3C716.7 123.3 733.3 112.7 750 104.5C766.7 96.3 783.3 90.7 800 88.2C816.7 85.7 833.3 86.3 850 94C866.7 101.7 883.3 116.3 891.7 123.7L900 131L900 201L891.7 201C883.3 201 866.7 201 850 201C833.3 201 816.7 201 800 201C783.3 201 766.7 201 750 201C733.3 201 716.7 201 700 201C683.3 201 666.7 201 650 201C633.3 201 616.7 201 600 201C583.3 201 566.7 201 550 201C533.3 201 516.7 201 500 201C483.3 201 466.7 201 450 201C433.3 201 416.7 201 400 201C383.3 201 366.7 201 350 201C333.3 201 316.7 201 300 201C283.3 201 266.7 201 250 201C233.3 201 216.7 201 200 201C183.3 201 166.7 201 150 201C133.3 201 116.7 201 100 201C83.3 201 66.7 201 50 201C33.3 201 16.7 201 8.3 201L0 201Z" fill="#00451c"></path><path d="M0 114L8.3 119.2C16.7 124.3 33.3 134.7 50 139.2C66.7 143.7 83.3 142.3 100 136.8C116.7 131.3 133.3 121.7 150 116.7C166.7 111.7 183.3 111.3 200 115.5C216.7 119.7 233.3 128.3 250 128.5C266.7 128.7 283.3 120.3 300 119.2C316.7 118 333.3 124 350 126.7C366.7 129.3 383.3 128.7 400 124.2C416.7 119.7 433.3 111.3 450 112.2C466.7 113 483.3 123 500 123.8C516.7 124.7 533.3 116.3 550 112.8C566.7 109.3 583.3 110.7 600 111.5C616.7 112.3 633.3 112.7 650 117.2C666.7 121.7 683.3 130.3 700 127.8C716.7 125.3 733.3 111.7 750 108.8C766.7 106 783.3 114 800 115C816.7 116 833.3 110 850 112.2C866.7 114.3 883.3 124.7 891.7 129.8L900 135L900 201L891.7 201C883.3 201 866.7 201 850 201C833.3 201 816.7 201 800 201C783.3 201 766.7 201 750 201C733.3 201 716.7 201 700 201C683.3 201 666.7 201 650 201C633.3 201 616.7 201 600 201C583.3 201 566.7 201 550 201C533.3 201 516.7 201 500 201C483.3 201 466.7 201 450 201C433.3 201 416.7 201 400 201C383.3 201 366.7 201 350 201C333.3 201 316.7 201 300 201C283.3 201 266.7 201 250 201C233.3 201 216.7 201 200 201C183.3 201 166.7 201 150 201C133.3 201 116.7 201 100 201C83.3 201 66.7 201 50 201C33.3 201 16.7 201 8.3 201L0 201Z" fill="#005826"></path><path d="M0 128L8.3 131C16.7 134 33.3 140 50 143.7C66.7 147.3 83.3 148.7 100 144C116.7 139.3 133.3 128.7 150 124C166.7 119.3 183.3 120.7 200 123.7C216.7 126.7 233.3 131.3 250 134.7C266.7 138 283.3 140 300 139C316.7 138 333.3 134 350 131.7C366.7 129.3 383.3 128.7 400 132C416.7 135.3 433.3 142.7 450 146.7C466.7 150.7 483.3 151.3 500 149.5C516.7 147.7 533.3 143.3 550 143.2C566.7 143 583.3 147 600 144C616.7 141 633.3 131 650 126.8C666.7 122.7 683.3 124.3 700 126C716.7 127.7 733.3 129.3 750 133.3C766.7 137.3 783.3 143.7 800 144.8C816.7 146 833.3 142 850 140.8C866.7 139.7 883.3 141.3 891.7 142.2L900 143L900 201L891.7 201C883.3 201 866.7 201 850 201C833.3 201 816.7 201 800 201C783.3 201 766.7 201 750 201C733.3 201 716.7 201 700 201C683.3 201 666.7 201 650 201C633.3 201 616.7 201 600 201C583.3 201 566.7 201 550 201C533.3 201 516.7 201 500 201C483.3 201 466.7 201 450 201C433.3 201 416.7 201 400 201C383.3 201 366.7 201 350 201C333.3 201 316.7 201 300 201C283.3 201 266.7 201 250 201C233.3 201 216.7 201 200 201C183.3 201 166.7 201 150 201C133.3 201 116.7 201 100 201C83.3 201 66.7 201 50 201C33.3 201 16.7 201 8.3 201L0 201Z" fill="#006d30"></path><path d="M0 151L8.3 150.8C16.7 150.7 33.3 150.3 50 150C66.7 149.7 83.3 149.3 100 147.7C116.7 146 133.3 143 150 142C166.7 141 183.3 142 200 145.3C216.7 148.7 233.3 154.3 250 153.3C266.7 152.3 283.3 144.7 300 143.5C316.7 142.3 333.3 147.7 350 145.5C366.7 143.3 383.3 133.7 400 134.2C416.7 134.7 433.3 145.3 450 148.7C466.7 152 483.3 148 500 143.8C516.7 139.7 533.3 135.3 550 134C566.7 132.7 583.3 134.3 600 134.5C616.7 134.7 633.3 133.3 650 132C666.7 130.7 683.3 129.3 700 132C716.7 134.7 733.3 141.3 750 145C766.7 148.7 783.3 149.3 800 146C816.7 142.7 833.3 135.3 850 135.3C866.7 135.3 883.3 142.7 891.7 146.3L900 150L900 201L891.7 201C883.3 201 866.7 201 850 201C833.3 201 816.7 201 800 201C783.3 201 766.7 201 750 201C733.3 201 716.7 201 700 201C683.3 201 666.7 201 650 201C633.3 201 616.7 201 600 201C583.3 201 566.7 201 550 201C533.3 201 516.7 201 500 201C483.3 201 466.7 201 450 201C433.3 201 416.7 201 400 201C383.3 201 366.7 201 350 201C333.3 201 316.7 201 300 201C283.3 201 266.7 201 250 201C233.3 201 216.7 201 200 201C183.3 201 166.7 201 150 201C133.3 201 116.7 201 100 201C83.3 201 66.7 201 50 201C33.3 201 16.7 201 8.3 201L0 201Z" fill="#00823b"></path><path d="M0 141L8.3 144.3C16.7 147.7 33.3 154.3 50 156.7C66.7 159 83.3 157 100 154.3C116.7 151.7 133.3 148.3 150 147.3C166.7 146.3 183.3 147.7 200 150.5C216.7 153.3 233.3 157.7 250 156.5C266.7 155.3 283.3 148.7 300 149.7C316.7 150.7 333.3 159.3 350 162.8C366.7 166.3 383.3 164.7 400 161.8C416.7 159 433.3 155 450 153C466.7 151 483.3 151 500 153.8C516.7 156.7 533.3 162.3 550 162.7C566.7 163 583.3 158 600 157.2C616.7 156.3 633.3 159.7 650 157.7C666.7 155.7 683.3 148.3 700 144.2C716.7 140 733.3 139 750 138.8C766.7 138.7 783.3 139.3 800 141.3C816.7 143.3 833.3 146.7 850 151.3C866.7 156 883.3 162 891.7 165L900 168L900 201L891.7 201C883.3 201 866.7 201 850 201C833.3 201 816.7 201 800 201C783.3 201 766.7 201 750 201C733.3 201 716.7 201 700 201C683.3 201 666.7 201 650 201C633.3 201 616.7 201 600 201C583.3 201 566.7 201 550 201C533.3 201 516.7 201 500 201C483.3 201 466.7 201 450 201C433.3 201 416.7 201 400 201C383.3 201 366.7 201 350 201C333.3 201 316.7 201 300 201C283.3 201 266.7 201 250 201C233.3 201 216.7 201 200 201C183.3 201 166.7 201 150 201C133.3 201 116.7 201 100 201C83.3 201 66.7 201 50 201C33.3 201 16.7 201 8.3 201L0 201Z" fill="#009846"></path><path d="M0 156L8.3 156.7C16.7 157.3 33.3 158.7 50 159.8C66.7 161 83.3 162 100 161.2C116.7 160.3 133.3 157.7 150 158.2C166.7 158.7 183.3 162.3 200 164.2C216.7 166 233.3 166 250 166.2C266.7 166.3 283.3 166.7 300 167.5C316.7 168.3 333.3 169.7 350 170.7C366.7 171.7 383.3 172.3 400 170.8C416.7 169.3 433.3 165.7 450 164.5C466.7 163.3 483.3 164.7 500 166.7C516.7 168.7 533.3 171.3 550 168.5C566.7 165.7 583.3 157.3 600 155C616.7 152.7 633.3 156.3 650 157.8C666.7 159.3 683.3 158.7 700 161C716.7 163.3 733.3 168.7 750 171.5C766.7 174.3 783.3 174.7 800 174.7C816.7 174.7 833.3 174.3 850 173.5C866.7 172.7 883.3 171.3 891.7 170.7L900 170L900 201L891.7 201C883.3 201 866.7 201 850 201C833.3 201 816.7 201 800 201C783.3 201 766.7 201 750 201C733.3 201 716.7 201 700 201C683.3 201 666.7 201 650 201C633.3 201 616.7 201 600 201C583.3 201 566.7 201 550 201C533.3 201 516.7 201 500 201C483.3 201 466.7 201 450 201C433.3 201 416.7 201 400 201C383.3 201 366.7 201 350 201C333.3 201 316.7 201 300 201C283.3 201 266.7 201 250 201C233.3 201 216.7 201 200 201C183.3 201 166.7 201 150 201C133.3 201 116.7 201 100 201C83.3 201 66.7 201 50 201C33.3 201 16.7 201 8.3 201L0 201Z" fill="#00ae51"></path><path d="M0 179L8.3 178.8C16.7 178.7 33.3 178.3 50 176C66.7 173.7 83.3 169.3 100 167C116.7 164.7 133.3 164.3 150 164C166.7 163.7 183.3 163.3 200 165.3C216.7 167.3 233.3 171.7 250 175C266.7 178.3 283.3 180.7 300 179.5C316.7 178.3 333.3 173.7 350 171.8C366.7 170 383.3 171 400 171.2C416.7 171.3 433.3 170.7 450 172.3C466.7 174 483.3 178 500 179.5C516.7 181 533.3 180 550 177.3C566.7 174.7 583.3 170.3 600 171C616.7 171.7 633.3 177.3 650 177.3C666.7 177.3 683.3 171.7 700 169C716.7 166.3 733.3 166.7 750 168.8C766.7 171 783.3 175 800 175.8C816.7 176.7 833.3 174.3 850 173.7C866.7 173 883.3 174 891.7 174.5L900 175L900 201L891.7 201C883.3 201 866.7 201 850 201C833.3 201 816.7 201 800 201C783.3 201 766.7 201 750 201C733.3 201 716.7 201 700 201C683.3 201 666.7 201 650 201C633.3 201 616.7 201 600 201C583.3 201 566.7 201 550 201C533.3 201 516.7 201 500 201C483.3 201 466.7 201 450 201C433.3 201 416.7 201 400 201C383.3 201 366.7 201 350 201C333.3 201 316.7 201 300 201C283.3 201 266.7 201 250 201C233.3 201 216.7 201 200 201C183.3 201 166.7 201 150 201C133.3 201 116.7 201 100 201C83.3 201 66.7 201 50 201C33.3 201 16.7 201 8.3 201L0 201Z" fill="#00c55c"></path><path d="M0 179L8.3 178.3C16.7 177.7 33.3 176.3 50 177.8C66.7 179.3 83.3 183.7 100 185.5C116.7 187.3 133.3 186.7 150 187.2C166.7 187.7 183.3 189.3 200 190C216.7 190.7 233.3 190.3 250 188.7C266.7 187 283.3 184 300 182.8C316.7 181.7 333.3 182.3 350 181.5C366.7 180.7 383.3 178.3 400 178.8C416.7 179.3 433.3 182.7 450 183.2C466.7 183.7 483.3 181.3 500 180.8C516.7 180.3 533.3 181.7 550 183.2C566.7 184.7 583.3 186.3 600 185.7C616.7 185 633.3 182 650 181.8C666.7 181.7 683.3 184.3 700 184.5C716.7 184.7 733.3 182.3 750 182.2C766.7 182 783.3 184 800 184.3C816.7 184.7 833.3 183.3 850 181.7C866.7 180 883.3 178 891.7 177L900 176L900 201L891.7 201C883.3 201 866.7 201 850 201C833.3 201 816.7 201 800 201C783.3 201 766.7 201 750 201C733.3 201 716.7 201 700 201C683.3 201 666.7 201 650 201C633.3 201 616.7 201 600 201C583.3 201 566.7 201 550 201C533.3 201 516.7 201 500 201C483.3 201 466.7 201 450 201C433.3 201 416.7 201 400 201C383.3 201 366.7 201 350 201C333.3 201 316.7 201 300 201C283.3 201 266.7 201 250 201C233.3 201 216.7 201 200 201C183.3 201 166.7 201 150 201C133.3 201 116.7 201 100 201C83.3 201 66.7 201 50 201C33.3 201 16.7 201 8.3 201L0 201Z" fill="#00dc67"></path></svg>